<svg xmlns="http://www.w3.org/2000/svg" width="32" height="32" viewBox="0 0 32 32">
    <g fill="none" transform="translate(1 1)">
        <circle cx="15" cy="15" r="15" stroke="#000" transform="matrix(1 0 0 -1 0 30)"/>
        <g fill="#000">
            <path d="M12.754 6.863c-.066-.535-.23-.955-.522-1.328-.38-.48-.865-.766-1.583-.936-.468-.114-.657-.1-.826.054-.157.144-.188.435-.068.623.085.136.183.185.455.238.361.067.612.153.84.283.482.28.707.716.73 1.422.012.332.04.434.157.551.214.215.597.174.759-.084.06-.097.068-.139.074-.364.005-.14-.001-.347-.016-.459z" transform="translate(5.813 6.438)"/>
            <path d="M14.646 7.467c-.096-1.64-.737-2.96-1.885-3.888-.647-.522-1.43-.88-2.286-1.055-.314-.062-.892-.113-.991-.084-.094.027-.226.128-.285.22-.063.1-.077.321-.024.45.086.214.246.29.694.329.69.06 1.401.303 1.939.661.614.409 1.101.968 1.417 1.624.273.565.44 1.378.436 2.106-.002.263.04.412.145.52.16.168.393.204.599.093.227-.12.28-.33.24-.976zM16.61 14.034c-.033-.094-.107-.24-.16-.322-.337-.51-2.142-1.931-3.043-2.396-.514-.265-.896-.354-1.178-.27-.304.085-.464.228-.973.864-.206.255-.416.494-.472.532-.139.096-.411.174-.603.174-.445-.003-1.253-.293-1.874-.674-.483-.295-1.101-.824-1.576-1.348-.56-.615-.941-1.157-1.242-1.77-.39-.786-.488-1.267-.326-1.618.04-.09.094-.183.118-.213.024-.026.274-.233.551-.459.544-.435.632-.534.734-.832.128-.379.093-.765-.104-1.155-.152-.295-.55-.94-.837-1.356-.382-.547-1.33-1.718-1.52-1.877-.341-.279-.779-.327-1.261-.14-.51.2-1.464.973-1.872 1.512-.368.49-.51.836-.53 1.292-.02.376.013.532.21 1.012 1.544 3.77 3.847 6.78 7.012 9.17 1.653 1.249 3.368 2.2 5.146 2.849 1.037.379 1.488.397 2.018.086.224-.134.779-.706 1.088-1.122.512-.693.701-1.013.755-1.268.037-.174.008-.478-.062-.671z" transform="translate(5.813 6.438)"/>
            <path d="M16.571 7.844c-.034-.928-.19-1.689-.516-2.537-.322-.835-.647-1.38-1.262-2.116-.58-.69-1.032-1.085-1.748-1.524C12.046 1.055 10.831.65 9.469.48c-.465-.06-.57-.055-.712.04-.276.18-.273.63.004.807.092.056.173.077.545.126.57.076.937.149 1.372.268 1.707.466 3.02 1.42 3.897 2.835.734 1.18 1.038 2.36.995 3.867-.015.51-.004.599.074.721.15.228.542.274.744.084.126-.115.15-.202.174-.638.012-.227.015-.563.01-.746z" transform="translate(5.813 6.438)"/>
        </g>
    </g>
</svg>
