<svg xmlns="http://www.w3.org/2000/svg" width="32" height="32" viewBox="0 0 32 32">
    <g fill="none" fill-rule="evenodd">
        <path fill-rule="nonzero" stroke="#000" d="M0 15C0 6.716 6.716 0 15 0c8.284 0 15 6.716 15 15 0 8.284-6.716 15-15 15-8.284 0-15-6.716-15-15z" transform="translate(1 1)"/>
        <path fill="#000" fill-rule="nonzero" d="M16.622 18.4l2.242 2.164c.46.443.46 1.161 0 1.604-.459.443-1.202.443-1.66 0L15 20.04l-2.202 2.127c-.23.221-.531.332-.832.332-.3 0-.6-.11-.83-.332-.459-.443-.459-1.16 0-1.604l2.241-2.164c-.816-.18-1.603-.492-2.328-.93-.549-.335-.714-1.034-.368-1.564.345-.531 1.07-.691 1.62-.357 1.641.997 3.756.997 5.398 0 .55-.334 1.275-.174 1.62.357.346.53.18 1.23-.368 1.563-.725.44-1.512.752-2.329.931z" transform="translate(1 1)"/>
        <path fill="#000" d="M14.99 7.5c2.212 0 4.01 1.736 4.01 3.871 0 2.134-1.798 3.87-4.01 3.87-2.212 0-4.01-1.736-4.01-3.87 0-2.135 1.798-3.871 4.01-3.871zm0 2.269c-.915 0-1.66.718-1.66 1.602 0 .883.745 1.602 1.66 1.602.915 0 1.66-.719 1.66-1.602 0-.884-.745-1.602-1.66-1.602z" transform="translate(1 1)"/>
    </g>
</svg>
