<svg xmlns="http://www.w3.org/2000/svg" width="32" height="32" viewBox="0 0 32 32">
    <g fill="none" transform="translate(1 1)">
        <circle cx="15" cy="15" r="15" stroke="#000"/>
        <path fill="#000" d="M15.494 23.345h-.003c-1.493 0-2.96-.375-4.263-1.085L6.5 23.5l1.265-4.622c-.78-1.353-1.19-2.887-1.19-4.46.002-4.917 4.003-8.918 8.92-8.918 2.385.001 4.625.93 6.309 2.616 1.684 1.686 2.61 3.927 2.61 6.31-.002 4.917-4.002 8.917-8.92 8.92zm-4.047-2.7l.271.16c1.138.676 2.443 1.033 3.773 1.034h.003c4.087 0 7.412-3.326 7.414-7.414 0-1.98-.77-3.843-2.17-5.244-1.4-1.402-3.26-2.174-5.24-2.174-4.09 0-7.416 3.325-7.417 7.412 0 1.401.391 2.765 1.133 3.946l.176.28-.748 2.736 2.805-.736zm8.541-4.098c-.056-.093-.204-.149-.427-.26-.223-.112-1.319-.651-1.523-.725-.204-.075-.353-.112-.501.111-.149.223-.576.725-.706.874-.13.149-.26.167-.483.056-.223-.112-.94-.347-1.792-1.106-.663-.591-1.11-1.321-1.24-1.544-.13-.223-.014-.344.098-.455.1-.1.223-.26.334-.39.111-.13.149-.224.223-.372.074-.15.037-.28-.019-.39-.055-.112-.501-1.21-.687-1.656-.18-.434-.365-.375-.501-.382-.13-.007-.279-.008-.427-.008-.149 0-.39.056-.595.279-.204.223-.78.762-.78 1.859s.799 2.157.91 2.305c.112.15 1.572 2.4 3.807 3.366.532.23.947.366 1.271.47.534.169 1.02.145 1.404.087.428-.064 1.318-.539 1.504-1.06.186-.52.186-.966.13-1.059z"/>
    </g>
</svg>
