<svg xmlns="http://www.w3.org/2000/svg" width="32" height="32" viewBox="0 0 32 32">
    <g fill="none">
        <path stroke="#000" d="M0 15C0 6.716 6.716 0 15 0c8.284 0 15 6.716 15 15 0 8.284-6.716 15-15 15-8.284 0-15-6.716-15-15z" transform="translate(1 1)"/>
        <path fill="#000" d="M17.778 9.156h1.597V6.373c-.276-.038-1.223-.123-2.327-.123-2.304 0-3.881 1.449-3.881 4.112v2.45h-2.542v3.111h2.542v7.827h3.116v-7.826h2.439l.387-3.11h-2.827V10.67c0-.899.243-1.514 1.496-1.514z" transform="translate(1 1)"/>
    </g>
</svg>
